<!DOCTYPE svg PUBLIC "-//W3C//DTD SVG 1.1//EN" "http://www.w3.org/Graphics/SVG/1.1/DTD/svg11.dtd">
<!-- Uploaded to: SVG Repo, www.svgrepo.com, Transformed by: SVG Repo Mixer Tools -->
<svg fill="#000000" height="79px" width="79px" version="1.1" id="Layer_1" xmlns="http://www.w3.org/2000/svg" xmlns:xlink="http://www.w3.org/1999/xlink" viewBox="0 0 512 512" xml:space="preserve">
<g id="SVGRepo_bgCarrier" stroke-width="0"/>
<g id="SVGRepo_tracerCarrier" stroke-linecap="round" stroke-linejoin="round"/>
<g id="SVGRepo_iconCarrier"> <g> <g> <path d="M510.799,310.553c-4.065-12.193-17.245-18.779-29.439-14.716c-5.342,1.781-10.147,3.376-15.901,4.55 c0.002-19.023,0.005-38.052,0.006-52.252h7.745c12.852,0,23.272-10.42,23.272-23.272c0-12.852-10.42-23.272-23.272-23.272h-7.621 c-2.468-41.795-24.855-80.421-63.679-109.464c-39.195-29.321-90.946-45.469-145.718-45.469 c-54.776,0-106.531,16.148-145.729,45.469C71.636,121.17,49.248,159.796,46.78,201.593h-7.993 c-12.852,0-23.272,10.42-23.272,23.272s10.42,23.272,23.272,23.272h7.76l0.003,52.254c-5.759-1.174-10.567-2.771-15.912-4.552 c-12.196-4.063-25.373,2.526-29.438,14.719c-4.065,12.193,2.526,25.373,14.719,29.438c8.372,2.79,17.511,5.821,30.635,7.542 l0.002,16.924c0,55.606,45.24,100.846,100.846,100.846h107.84c0.254,0.008,0.507,0.036,0.762,0.036 c0.253,0,0.507-0.028,0.762-0.036h107.843c55.607,0,100.846-45.24,100.846-100.846c0-4.574,0-10.351,0-16.924 c13.122-1.722,22.259-4.754,30.628-7.543C508.276,335.926,514.864,322.746,510.799,310.553z M138.344,129.396 C169.547,106.056,211.4,93.2,256.192,93.2c44.788,0,86.636,12.854,117.838,36.194c26.631,19.921,42.313,45.316,44.858,72.195 H93.462C96.005,174.71,111.711,149.319,138.344,129.396z M147.401,418.759c-29.942,0-54.302-24.36-54.302-54.303l-0.002-16.922 c12.067-1.584,20.767-4.273,28.594-6.867l78.091,78.092H147.401z M256.004,409.154l-74.542-74.542 c8.016,1.181,13.897,3.134,20.635,5.379c12.589,4.197,26.856,8.952,53.908,8.952c27.045,0,41.31-4.755,53.897-8.952 c6.741-2.247,12.624-4.201,20.65-5.381L256.004,409.154z M418.91,364.458c0,29.942-24.36,54.302-54.302,54.302h-52.384 l78.092-78.091c7.827,2.593,16.526,5.281,28.594,6.865C418.91,354.106,418.91,359.884,418.91,364.458z M418.922,248.136 c-0.002,14.201-0.005,33.233-0.006,52.254c-5.761-1.173-10.57-2.771-15.918-4.554c-12.587-4.195-26.856-8.952-53.905-8.952h-0.002 h-0.002c-27.052,0-41.319,4.757-53.908,8.952c-10.998,3.666-19.687,6.563-39.178,6.563c-19.497,0-28.187-2.897-39.189-6.563 c-12.587-4.195-26.853-8.952-53.9-8.952h-0.002h-0.002h-0.002c-27.048,0-41.316,4.757-53.903,8.952 c-5.345,1.781-10.153,3.378-15.912,4.552l-0.003-52.254h325.829V248.136z"/> </g> </g> </g>
</svg>