<?xml version="1.0" encoding="UTF-8"?>
<!DOCTYPE svg PUBLIC "-//W3C//DTD SVG 1.1//EN" "http://www.w3.org/Graphics/SVG/1.1/DTD/svg11.dtd">
<svg version="1.1" xmlns="http://www.w3.org/2000/svg" xmlns:xlink="http://www.w3.org/1999/xlink" x="0" y="0" width="763.937" height="543.843" viewBox="0, 0, 763.937, 543.843">
  <g id="Layer_1">
    <path d="M146.65,418.233 C176.254,438.158 223.993,452.06 246.943,445.415 C269.893,438.771 375.624,400.712 384.682,383.181 C393.744,365.669 405.233,352.973 417.91,352.37 C430.596,351.767 467.467,315.518 480.153,299.816 C492.83,284.104 488.608,252.686 495.262,239.396 C501.907,226.107 477.118,145.748 430.596,121.582 C415.497,73.863 373.211,33.985 349.036,18.886 C324.879,3.778 278.357,8.613 260.232,9.216 C242.108,9.819 214.323,3.165 179.883,10.422 C145.434,17.67 106.763,45.465 103.756,62.373 C69.317,73.25 30.052,92.581 17.95,134.278 C5.877,175.956 -4.397,273.232 33.652,294.981 C71.739,316.724 48.167,338.468 61.466,362.041 C74.755,385.603 97.705,411.579 146.65,418.233" fill="#F8CB89" id="path17773"/>
    <path d="M495.263,239.396 C501.907,226.106 477.119,145.748 430.596,121.582 C415.498,73.863 373.212,33.985 349.036,18.886 C324.88,3.777 278.357,8.612 260.233,9.216 C249.691,9.57 235.799,7.521 219.311,7.128 C224.683,23.223 258.701,27.551 249.356,41.836 C239.083,57.538 266.265,52.722 260.846,74.466 C266.858,64.795 296.472,29.753 318.829,33.372 C341.176,37.01 377.434,46.068 379.847,66.614 C382.269,87.152 404.63,115.54 401.595,145.748 C398.589,175.955 359.319,203.75 336.359,203.156 C313.4,202.544 284.399,207.379 281.967,194.693 C279.564,181.997 260.233,189.254 243.305,196.512 C226.397,203.75 216.736,194.089 204.643,201.337 C192.57,208.585 184.709,202.544 187.735,189.254 C190.741,175.955 162.956,150.583 170.213,137.897 C177.471,125.21 178.065,73.863 197.395,58.754 C181.08,49.687 167.791,82.929 133.361,73.863 C146.038,78.688 147.857,93.193 147.254,108.292 C146.651,123.401 163.569,151.789 163.569,163.269 C163.569,174.749 153.908,195.899 141.212,197.718 C128.516,199.518 119.469,211.611 114.021,223.091 C108.592,234.57 89.855,250.272 59.054,233.364 C28.233,216.446 15.538,177.171 20.976,158.434 C26.424,139.716 56.019,113.731 92.871,103.467 C66.254,102.988 37.08,114.497 20.516,126.771 C19.568,129.193 18.716,131.692 17.95,134.278 C5.877,175.955 -4.396,273.232 33.652,294.98 C71.74,316.724 48.168,338.468 61.466,362.041 C74.756,385.603 97.706,411.579 146.651,418.233 C176.255,438.158 223.993,452.06 246.943,445.415 C269.893,438.771 375.625,400.712 384.682,383.181 C393.744,365.669 405.233,352.973 417.91,352.37 C430.596,351.767 467.468,315.518 480.154,299.816 C492.831,284.104 488.608,252.685 495.263,239.396" fill="#F3B674" id="path17775"/>
    <path d="M101.344,360.824 C116.644,371.691 142.418,364.453 159.327,375.933 C176.255,387.413 213.107,386.207 237.282,343.916 C242.702,368.675 263.852,390.439 295.266,387.413 C326.679,384.397 354.474,373.52 360.525,351.164 C366.567,328.817 362.325,348.741 362.325,348.741 C379.847,345.726 393.744,337.875 392.537,317.337 C391.326,296.781 371.996,265.984 371.996,246.644 C376.831,257.52 379.243,270.207 396.779,272.026 C414.291,273.835 443.292,273.232 443.292,248.463 C443.292,223.684 469.88,226.719 464.442,200.131 C459.004,173.552 443.895,160.847 439.06,174.749 C434.235,188.661 422.745,215.24 401.001,209.801 C379.243,204.363 371.383,214.023 361.732,224.891 C340.582,218.255 314.003,229.132 307.358,241.818 C300.704,254.504 281.373,273.835 272.909,260.536 C264.455,247.247 243.908,241.215 233.644,249.066 C223.38,256.927 234.851,272.026 221.552,275.042 C208.281,278.058 198.592,267.191 195.585,257.52 C192.57,247.85 178.677,226.106 152.692,224.297 C126.707,222.478 136.377,265.371 109.798,264.778 C83.21,264.165 68.101,268.407 68.101,285.923 C68.101,303.425 63.869,334.246 101.344,360.824" fill="#F8CB89" id="path17777"/>
    <path d="M146.65,418.233 C176.254,438.158 223.993,452.06 246.943,445.415 C269.893,438.771 375.624,400.712 384.682,383.181 C393.744,365.669 405.233,352.973 417.91,352.37 C430.596,351.767 467.467,315.518 480.153,299.816 C492.83,284.104 488.608,252.686 495.262,239.396 C501.907,226.107 477.118,145.748 430.596,121.582 C415.497,73.863 373.211,33.985 349.036,18.886 C324.879,3.778 278.357,8.613 260.232,9.216 C242.108,9.819 214.323,3.165 179.883,10.422 C145.434,17.67 106.763,45.465 103.756,62.373 C69.317,73.25 30.052,92.581 17.95,134.278 C5.877,175.956 -4.397,273.232 33.652,294.981 C71.739,316.724 48.167,338.468 61.466,362.041 C74.755,385.603 97.705,411.579 146.65,418.233 z" fill-opacity="0" stroke="#D79256" stroke-width="13.896" stroke-linecap="round" stroke-linejoin="round" id="path17779"/>
    <path d="M83.018,281.495 L77.293,295.795 L104.006,286.258 L83.018,325.37 L111.646,309.16 L110.679,333.959 L165.062,263.37 L127.856,280.547 L142.169,261.456 z" fill="#FCE3C4" id="path17781"/>
    <path d="M49.632,167.022 L74.44,141.267 L52.495,201.376 L72.534,168.928 L53.443,217.585 L42.001,212.817 L48.684,179.431 L35.328,185.156 z" fill="#FCE3C4" id="path17783"/>
    <path d="M218.794,82.652 L205.007,118.231 L208.444,161.871 L214.189,120.548 L244.042,92.973 L229.125,135.465 L222.241,188.287 L238.307,134.325 L292.278,70.014 L254.383,102.165 L253.234,75.768 L226.837,95.271 z" fill="#FCE3C4" id="path17785"/>
    <path d="M265.872,283.577 L300.311,306.556 L307.195,282.438 L323.28,292.759 L326.718,243.389 L338.197,311.142 L316.396,299.663 L308.344,326.069 z" fill="#FCE3C4" id="path17787"/>
    <path d="M325.578,163.02 L363.464,164.169 L382.987,112.505 L371.497,168.765 L306.046,188.287 L340.495,172.212 z" fill="#FCE3C4" id="path17789"/>
    <path d="M172.846,26.373 L162.525,43.607 L140.695,36.714 L133.811,56.236 L114.289,64.269 L147.598,64.269 L148.747,51.64 L175.154,52.789 L178.6,29.82 L208.444,28.671 z" fill="#FCE3C4" id="path17791"/>
    <path d="M390.8,511.575 C413.535,522.403 453.029,515.194 470.551,514.6 C491.088,532.715 517.667,539.973 550.297,535.751 C582.927,531.509 627.027,497.079 648.789,489.821 C670.533,482.574 726.113,440.886 731.551,416.72 C736.98,392.554 764.181,353.893 755.114,322.469 C746.057,291.055 732.758,280.796 723.087,272.945 C713.427,265.084 715.236,243.341 686.235,220.984 C657.234,198.628 625.217,192.577 604.067,192.577 C589.561,188.354 588.968,169.023 570.24,159.956 C551.503,150.899 494.114,144.867 471.757,150.296 C449.401,155.724 411.342,160.569 400.465,190.777 C389.594,220.984 374.485,242.728 362.402,250.579 C350.329,258.439 329.782,298.916 328.566,325.495 C327.369,352.073 314.673,401.018 333.401,425.778 C329.179,449.35 352.741,493.45 390.8,511.575" fill="#F8CB89" id="path17793"/>
    <path d="M596.819,273.548 C585.339,265.084 585.339,246.356 596.819,245.744 C608.299,245.15 603.474,224.603 594.406,208.891 C589.887,201.05 592.127,194.865 597.853,189.292 C588.882,182.16 585.837,167.501 570.24,159.956 C569.139,159.439 567.885,158.922 566.535,158.405 C573.371,170.211 563.71,186.602 561.183,196.205 C558.847,205.081 550.354,211.333 540.492,209.849 C546.113,216.972 558.425,226.413 567.215,233.67 C577.488,242.124 586.555,273.548 585.952,285.014 C585.445,294.463 607.045,298.198 624.805,311.679 C625.284,296.168 606.422,280.623 596.819,273.548" fill="#F3B674" id="path17795"/>
    <path d="M755.114,322.469 C746.057,291.055 732.758,280.796 723.087,272.945 C719.755,270.226 717.773,265.831 715.437,260.364 C717.553,279.752 699.524,268.761 697.112,278.374 C694.086,290.452 704.963,315.221 715.849,321.263 C726.716,327.304 700.138,376.239 686.848,382.884 C676.45,388.083 665.334,391.76 656.354,385.632 C658.345,403.134 657.291,417.735 651.806,420.349 C639.11,426.391 637.3,456.598 636.696,468.078 C636.333,474.981 621.09,491.909 602.698,505.236 L615.403,507.161 C628.568,499.53 640.354,492.636 648.79,489.821 C670.533,482.574 726.113,440.886 731.551,416.72 C736.98,392.554 764.181,353.893 755.114,322.469" fill="#F3B674" id="path17797"/>
    <path d="M348.414,284.659 C365.925,265.333 385.352,259.043 391.403,238.505 C397.45,217.959 422.822,206.479 423.435,197.421 C424.038,188.354 441.55,176.271 456.055,186.535 C470.551,196.818 485.659,199.231 500.758,194.396 C515.867,189.561 534.595,199.231 538.223,206.479 C541.852,213.727 556.951,225.207 567.215,233.67 C577.488,242.125 586.555,273.548 585.952,285.014 C585.339,296.503 617.366,299.509 635.491,321.866 C653.605,344.222 664.492,414.308 651.806,420.349 C639.11,426.391 637.3,456.598 636.697,468.078 C636.094,479.558 594.406,518.823 565.405,523.055 C536.404,527.287 514.057,528.493 497.742,521.235" fill-opacity="0" stroke="#FCE3C4" stroke-width="13.896" stroke-linecap="round" stroke-linejoin="round" id="path17799"/>
    <path d="M390.8,511.575 C413.535,522.403 453.029,515.194 470.551,514.6 C491.088,532.715 517.667,539.973 550.297,535.751 C582.927,531.509 627.027,497.079 648.789,489.821 C670.533,482.574 726.113,440.886 731.551,416.72 C736.98,392.554 764.181,353.893 755.114,322.469 C746.057,291.055 732.758,280.796 723.087,272.945 C713.427,265.084 715.236,243.341 686.235,220.984 C657.234,198.628 625.217,192.577 604.067,192.577 C589.561,188.354 588.968,169.023 570.24,159.956 C551.503,150.899 494.114,144.867 471.757,150.296 C449.401,155.724 411.342,160.569 400.465,190.777 C389.594,220.984 374.485,242.728 362.402,250.579 C350.329,258.439 329.782,298.916 328.566,325.495 C327.369,352.073 314.673,401.018 333.401,425.778 C329.179,449.35 352.741,493.45 390.8,511.575 z" fill-opacity="0" stroke="#D79256" stroke-width="13.896" stroke-linecap="round" stroke-linejoin="round" id="path17801"/>
    <path d="M471.757,503.714 C485.056,505.533 498.949,518.823 526.14,520.029 C553.332,521.235 599.845,509.152 617.969,480.764 C636.094,452.366 630.052,420.962 637.3,409.463 C644.548,397.993 642.738,367.775 636.697,349.067 C630.655,330.329 588.968,304.354 570.844,297.097 C572.059,277.158 565.405,241.521 547.884,230.654 C530.372,219.768 520.089,223.397 510.429,212.52 C500.758,201.653 456.055,210.711 439.749,210.098 C423.434,209.504 400.465,230.041 400.465,240.918 C400.465,251.795 379.33,272.332 364.824,282.6 C350.329,292.865 327.972,354.495 335.823,394.364 C343.684,434.242 344.278,463.855 366.031,475.929 C387.774,488.012 419.193,523.055 471.757,503.714" fill="#FFF7AA" id="path17803"/>
    <path d="M471.757,503.714 C485.056,505.533 498.949,518.823 526.14,520.029 C553.332,521.235 599.845,509.152 617.969,480.764 C636.094,452.366 630.052,420.962 637.3,409.463 C644.548,397.993 642.738,367.775 636.697,349.067 C630.655,330.329 588.968,304.354 570.844,297.097 C572.059,277.158 565.405,241.521 547.884,230.654 C530.372,219.768 520.089,223.397 510.429,212.52 C500.758,201.653 456.055,210.711 439.749,210.098 C423.434,209.504 400.465,230.041 400.465,240.918 C400.465,251.795 379.33,272.332 364.824,282.6 C350.329,292.865 327.972,354.495 335.823,394.364 C343.684,434.242 344.278,463.855 366.031,475.929 C387.774,488.012 419.193,523.055 471.757,503.714 z" fill-opacity="0" stroke="#F3B674" stroke-width="13.896" stroke-linecap="round" stroke-linejoin="round" id="path17805"/>
    <path d="M433.699,230.042 C416.78,239.099 405.301,278.977 404.697,296.503 C404.094,314.015 430.07,308.576 439.75,301.329 C449.401,294.081 471.164,289.859 485.056,294.081 C498.949,298.303 533.991,292.865 537.007,274.152 C540.032,255.414 533.388,236.687 518.28,239.099 C503.17,241.522 490.495,234.264 487.459,226.413 C484.453,218.562 450.617,220.984 433.699,230.042" fill="#FFFFFE" id="path17807"/>
    <path d="M378.717,447.541 C392.614,465.655 440.956,491.028 460.88,483.78 C480.824,476.532 468.138,492.857 454.848,495.863 C437.815,499.741 379.837,493.604 366.03,454.176 C357.567,430.019 364.824,429.406 378.717,447.541" fill="#FEDC6B" id="path17809"/>
    <path d="M496.536,494.657 C514.057,500.085 576.281,485.599 585.952,464.449 C595.612,443.299 602.86,426.391 611.927,423.968 C620.985,421.555 622.182,455.2 610.712,470.5 C561.776,535.751 479.014,489.228 496.536,494.657" fill="#FEDC6B" id="path17811"/>
  </g>
</svg>
